
<svg aria-hidden="true" style="position: absolute; width: 0; height: 0; overflow: hidden;" version="1.1" xmlns="http://www.w3.org/2000/svg" xmlns:xlink="http://www.w3.org/1999/xlink">
<defs>
<symbol id="icon-close" viewBox="0 0 32 32">
<path stroke-width="2.4" stroke-miterlimit="4" stroke-linecap="round" stroke-linejoin="round" d="M24 8l-16 16"></path>
<path stroke-width="2.4" stroke-miterlimit="4" stroke-linecap="round" stroke-linejoin="round" d="M8 8l16 16"></path>
</symbol>
<symbol id="icon-menu" viewBox="0 0 32 32">
<path stroke-width="2.8235" stroke-miterlimit="4" stroke-linecap="round" stroke-linejoin="round" d="M1.882 10.51h28.235M1.882 21.49h28.235"></path>
</symbol>
<symbol id="icon-youtube" viewBox="0 0 32 32">
<path d="M23.847 6.476c-1.295-0.076-3.962-0.152-8-0.152h-0.533c-3.886 0-6.476 0.076-7.771 0.229-1.752 0.152-2.971 0.61-3.657 1.219-0.61 0.533-1.067 1.524-1.219 2.819-0.076 0.838-0.152 2.59-0.152 5.257v0.381c0 2.514 0.076 4.267 0.229 5.105 0.229 1.219 0.61 2.133 1.371 2.667 0.762 0.61 2.057 0.99 3.886 1.143 1.295 0.076 3.962 0.152 8 0.152h0.533c3.886 0 6.476-0.076 7.771-0.229 1.752-0.152 2.971-0.61 3.657-1.219 0.61-0.533 1.067-1.524 1.219-2.819 0.076-0.838 0.152-2.59 0.152-5.257v-0.381c0-2.514-0.076-4.267-0.229-5.105-0.229-1.219-0.61-2.133-1.371-2.667-0.762-0.61-2.057-0.99-3.886-1.143zM20.876 15.847l-8.381 5.029v-10.057l8.381 5.029z"></path>
</symbol>
<symbol id="icon-instagram" viewBox="0 0 32 32">
<path d="M28.112 11.006c-0.015-1.023-0.204-2.038-0.567-2.995-0.635-1.634-1.928-2.926-3.565-3.559-0.946-0.355-1.947-0.546-2.96-0.568-1.302-0.058-1.715-0.074-5.022-0.074s-3.73 0-5.023 0.074c-1.011 0.022-2.012 0.212-2.958 0.568-1.637 0.633-2.931 1.925-3.565 3.559-0.356 0.945-0.548 1.944-0.567 2.953-0.058 1.302-0.076 1.714-0.076 5.015s0 3.723 0.076 5.015c0.020 1.011 0.211 2.009 0.567 2.956 0.635 1.633 1.928 2.925 3.566 3.558 0.942 0.368 1.943 0.576 2.958 0.608 1.304 0.058 1.717 0.076 5.023 0.076s3.73 0 5.023-0.076c1.011-0.020 2.012-0.211 2.96-0.566 1.637-0.634 2.93-1.926 3.565-3.559 0.356-0.946 0.547-1.944 0.567-2.956 0.058-1.3 0.076-1.713 0.076-5.015-0.003-3.301-0.003-3.72-0.078-5.013zM15.991 22.22c-3.458 0-6.259-2.797-6.259-6.249s2.801-6.249 6.259-6.249c3.455 0 6.259 2.797 6.259 6.249s-2.804 6.249-6.259 6.249zM22.499 10.949c-0.808 0-1.459-0.652-1.459-1.457s0.651-1.457 1.459-1.457c0.805 0 1.458 0.652 1.458 1.457s-0.653 1.457-1.458 1.457z"></path>
<path d="M15.993 19.787c2.106 0 3.813-1.707 3.813-3.813s-1.707-3.813-3.813-3.813-3.813 1.707-3.813 3.813c0 2.106 1.707 3.813 3.813 3.813z"></path>
</symbol>
<symbol id="icon-facebook" viewBox="0 0 32 32">
<path d="M20.693 1.92c0.32 0 0.64 0 1.28 0v4.8c-0.32 0-0.96 0-1.6 0s-1.28 0-1.6 0.32c-0.32 0.32-0.32 0.64-0.32 1.387 0 0.64 0 1.067 0 1.707h3.52v4.053h-3.52v17.6h-5.44v-17.707h-2.88v-4.053h2.88v-1.387c0-2.347 0.32-4.053 0.96-4.8 0.96-1.387 2.88-2.027 5.76-2.027 0.32 0.107 0.64 0.107 0.96 0.107z"></path>
</symbol>
</defs>
</svg>
